<svg width="35" height="35" viewBox="0 0 35 35" fill="none" xmlns="http://www.w3.org/2000/svg">
<path d="M17.4998 10.2083V7.29167C17.4998 5.6875 16.1873 4.375 14.5832 4.375H5.83317C4.229 4.375 2.9165 5.6875 2.9165 7.29167V27.7083C2.9165 29.3125 4.229 30.625 5.83317 30.625H29.1665C30.7707 30.625 32.0832 29.3125 32.0832 27.7083V13.125C32.0832 11.5208 30.7707 10.2083 29.1665 10.2083H17.4998ZM8.74984 27.7083H5.83317V24.7917H8.74984V27.7083ZM8.74984 21.875H5.83317V18.9583H8.74984V21.875ZM8.74984 16.0417H5.83317V13.125H8.74984V16.0417ZM8.74984 10.2083H5.83317V7.29167H8.74984V10.2083ZM14.5832 27.7083H11.6665V24.7917H14.5832V27.7083ZM14.5832 21.875H11.6665V18.9583H14.5832V21.875ZM14.5832 16.0417H11.6665V13.125H14.5832V16.0417ZM14.5832 10.2083H11.6665V7.29167H14.5832V10.2083ZM27.7082 27.7083H17.4998V24.7917H20.4165V21.875H17.4998V18.9583H20.4165V16.0417H17.4998V13.125H27.7082C28.5103 13.125 29.1665 13.7812 29.1665 14.5833V26.25C29.1665 27.0521 28.5103 27.7083 27.7082 27.7083ZM26.2498 16.0417H23.3332V18.9583H26.2498V16.0417ZM26.2498 21.875H23.3332V24.7917H26.2498V21.875Z" fill="#4F8FF0"/>
</svg>
