<svg width="35" height="35" viewBox="0 0 35 35" fill="none" xmlns="http://www.w3.org/2000/svg">
<path d="M15.7354 23.7563C16.3042 24.325 17.2229 24.325 17.7917 23.7563L23.0271 18.5208C23.5958 17.9521 23.5958 17.0333 23.0271 16.4646L17.7917 11.2292C17.2229 10.6604 16.3042 10.6604 15.7354 11.2292C15.1667 11.7979 15.1667 12.7167 15.7354 13.2854L18.4771 16.0417H5.83333C5.03125 16.0417 4.375 16.6979 4.375 17.5C4.375 18.3021 5.03125 18.9583 5.83333 18.9583H18.4771L15.7354 21.7C15.1667 22.2688 15.1813 23.2021 15.7354 23.7563ZM27.7083 4.375H7.29167C5.67292 4.375 4.375 5.6875 4.375 7.29167V11.6667C4.375 12.4688 5.03125 13.125 5.83333 13.125C6.63542 13.125 7.29167 12.4688 7.29167 11.6667V8.75C7.29167 7.94792 7.94792 7.29167 8.75 7.29167H26.25C27.0521 7.29167 27.7083 7.94792 27.7083 8.75V26.25C27.7083 27.0521 27.0521 27.7083 26.25 27.7083H8.75C7.94792 27.7083 7.29167 27.0521 7.29167 26.25V23.3333C7.29167 22.5312 6.63542 21.875 5.83333 21.875C5.03125 21.875 4.375 22.5312 4.375 23.3333V27.7083C4.375 29.3125 5.6875 30.625 7.29167 30.625H27.7083C29.3125 30.625 30.625 29.3125 30.625 27.7083V7.29167C30.625 5.6875 29.3125 4.375 27.7083 4.375Z" fill="#4F8FF0"/>
</svg>
