<svg width="35" height="35" viewBox="0 0 35 35" fill="none" xmlns="http://www.w3.org/2000/svg">
<path d="M5.83317 8.75008H2.9165V29.1667C2.9165 30.7709 4.229 32.0834 5.83317 32.0834H26.2498V29.1667H5.83317V8.75008ZM20.4165 16.0417C22.8373 16.0417 24.7915 14.0876 24.7915 11.6667C24.7915 9.24591 22.8373 7.29175 20.4165 7.29175C17.9957 7.29175 16.0415 9.24591 16.0415 11.6667C16.0415 14.0876 17.9957 16.0417 20.4165 16.0417ZM20.4165 10.2084C21.2186 10.2084 21.8748 10.8647 21.8748 11.6667C21.8748 12.4688 21.2186 13.1251 20.4165 13.1251C19.6144 13.1251 18.9582 12.4688 18.9582 11.6667C18.9582 10.8647 19.6144 10.2084 20.4165 10.2084ZM29.1665 2.91675H11.6665C10.0623 2.91675 8.74984 4.22925 8.74984 5.83341V23.3334C8.74984 24.9376 10.0623 26.2501 11.6665 26.2501H29.1665C30.7707 26.2501 32.0832 24.9376 32.0832 23.3334V5.83341C32.0832 4.22925 30.7707 2.91675 29.1665 2.91675ZM15.5894 23.3334C16.9748 22.4147 18.6373 21.8751 20.4165 21.8751C22.1957 21.8751 23.8582 22.4147 25.2436 23.3334H15.5894ZM29.1665 22.9397C27.0228 20.5042 23.9165 18.9584 20.4165 18.9584C16.9165 18.9584 13.8103 20.5042 11.6665 22.9397V5.83341H29.1665V22.9397Z" fill="#4F8FF0"/>
</svg>
