<svg width="35" height="35" viewBox="0 0 35 35" fill="none" xmlns="http://www.w3.org/2000/svg">
<path d="M4.37516 13.8542H1.4585V29.8958C1.4585 31.5146 2.75641 32.8125 4.37516 32.8125H29.1668V29.8958H4.37516V13.8542Z" fill="#4F8FF0"/>
<path d="M26.2502 8.02083V5.10417C26.2502 3.5 24.9377 2.1875 23.3335 2.1875H17.5002C15.896 2.1875 14.5835 3.5 14.5835 5.10417V8.02083H7.29183V24.0625C7.29183 25.6667 8.60433 26.9792 10.2085 26.9792H30.6252C32.2293 26.9792 33.5418 25.6667 33.5418 24.0625V8.02083H26.2502ZM17.5002 5.10417H23.3335V8.02083H17.5002V5.10417ZM30.6252 24.0625H10.2085V10.9375H30.6252V24.0625Z" fill="#4F8FF0"/>
</svg>
