<svg width="20" height="20" viewBox="0 0 20 20" fill="none" xmlns="http://www.w3.org/2000/svg">
<path d="M19.3377 9.7875C18.6026 7.88603 17.3265 6.24164 15.667 5.05755C14.0075 3.87347 12.0374 3.20161 10.0002 3.125C7.96305 3.20161 5.99296 3.87347 4.33347 5.05755C2.67398 6.24164 1.39782 7.88603 0.662722 9.7875C0.613077 9.92482 0.613077 10.0752 0.662722 10.2125C1.39782 12.114 2.67398 13.7584 4.33347 14.9424C5.99296 16.1265 7.96305 16.7984 10.0002 16.875C12.0374 16.7984 14.0075 16.1265 15.667 14.9424C17.3265 13.7584 18.6026 12.114 19.3377 10.2125C19.3874 10.0752 19.3874 9.92482 19.3377 9.7875ZM10.0002 15.625C6.68772 15.625 3.18772 13.1687 1.91897 10C3.18772 6.83125 6.68772 4.375 10.0002 4.375C13.3127 4.375 16.8127 6.83125 18.0815 10C16.8127 13.1687 13.3127 15.625 10.0002 15.625Z" fill="#4F8FF0"/>
<path d="M10 6.25C9.25832 6.25 8.5333 6.46993 7.91661 6.88199C7.29993 7.29404 6.81928 7.87971 6.53545 8.56494C6.25162 9.25016 6.17736 10.0042 6.32206 10.7316C6.46675 11.459 6.8239 12.1272 7.34835 12.6517C7.8728 13.1761 8.54098 13.5333 9.26841 13.6779C9.99584 13.8226 10.7498 13.7484 11.4351 13.4645C12.1203 13.1807 12.706 12.7001 13.118 12.0834C13.5301 11.4667 13.75 10.7417 13.75 10C13.75 9.00544 13.3549 8.05161 12.6517 7.34835C11.9484 6.64509 10.9946 6.25 10 6.25ZM10 12.5C9.50555 12.5 9.0222 12.3534 8.61108 12.0787C8.19995 11.804 7.87952 11.4135 7.6903 10.9567C7.50108 10.4999 7.45158 9.99723 7.54804 9.51227C7.6445 9.02732 7.8826 8.58186 8.23223 8.23223C8.58187 7.8826 9.02732 7.6445 9.51228 7.54804C9.99723 7.45157 10.4999 7.50108 10.9567 7.6903C11.4135 7.87952 11.804 8.19995 12.0787 8.61107C12.3534 9.0222 12.5 9.50555 12.5 10C12.5 10.663 12.2366 11.2989 11.7678 11.7678C11.2989 12.2366 10.663 12.5 10 12.5Z" fill="#4F8FF0"/>
</svg>
