<svg width="32" height="32" viewBox="0 0 32 32" fill="none" xmlns="http://www.w3.org/2000/svg">
<path d="M5.33317 26.6666C4.59984 26.6666 3.97184 26.4053 3.44917 25.8826C2.92651 25.3599 2.66562 24.7324 2.66651 23.9999V7.99992C2.66651 7.26659 2.92784 6.63859 3.45051 6.11592C3.97317 5.59325 4.60073 5.33237 5.33317 5.33325H26.6665C27.3998 5.33325 28.0278 5.59459 28.5505 6.11725C29.0732 6.63992 29.3341 7.26748 29.3332 7.99992V23.9999C29.3332 24.7333 29.0718 25.3613 28.5492 25.8839C28.0265 26.4066 27.399 26.6675 26.6665 26.6666H5.33317ZM15.9998 17.3333L5.33317 10.6666V23.9999H26.6665V10.6666L15.9998 17.3333ZM15.9998 14.6666L26.6665 7.99992H5.33317L15.9998 14.6666ZM5.33317 10.6666V7.99992V23.9999V10.6666Z" fill="#F8F5F4"/>
</svg>
