<svg width="16" height="16" viewBox="0 0 16 16" fill="none" xmlns="http://www.w3.org/2000/svg">
<path d="M2.66683 13.3334C2.30016 13.3334 1.98616 13.2027 1.72483 12.9414C1.4635 12.6801 1.33305 12.3663 1.3335 12.0001V4.00008C1.3335 3.63342 1.46416 3.31942 1.7255 3.05808C1.98683 2.79675 2.30061 2.6663 2.66683 2.66675H13.3335C13.7002 2.66675 14.0142 2.79742 14.2755 3.05875C14.5368 3.32008 14.6673 3.63386 14.6668 4.00008V12.0001C14.6668 12.3667 14.5362 12.6807 14.2748 12.9421C14.0135 13.2034 13.6997 13.3339 13.3335 13.3334H2.66683ZM8.00016 8.66675L2.66683 5.33342V12.0001H13.3335V5.33342L8.00016 8.66675ZM8.00016 7.33342L13.3335 4.00008H2.66683L8.00016 7.33342ZM2.66683 5.33342V4.00008V12.0001V5.33342Z" fill="#4F8FF0"/>
</svg>
