<svg width="35" height="35" viewBox="0 0 35 35" fill="none" xmlns="http://www.w3.org/2000/svg">
<path d="M26.9793 33.5416H6.56266C4.9585 33.5416 3.646 32.2291 3.646 30.6249V10.2083H6.56266V30.6249H26.9793V33.5416ZM21.8752 10.2083V7.29158H18.9585V10.2083H16.0418V13.1249H18.9585V16.0416H21.8752V13.1249H24.7918V10.2083H21.8752ZM24.7918 18.9583H16.0418V21.8749H24.7918V18.9583ZM22.6043 1.45825H12.396C10.7918 1.45825 9.49391 2.77075 9.49391 4.37492L9.47933 24.7916C9.47933 26.3958 10.7772 27.7083 12.3814 27.7083H28.4377C30.0418 27.7083 31.3543 26.3958 31.3543 24.7916V10.2083L22.6043 1.45825ZM28.4377 24.7916H12.396V4.37492H21.3939L28.4377 11.4187V24.7916Z" fill="#4F8FF0"/>
</svg>
